<?xml version="1.0" encoding="UTF-8" standalone="no"?>
<svg
   height="936.79578"
   width="1134.7692"
   version="1.1"
   id="svg4"
   sodipodi:docname="help.svg"
   inkscape:version="1.1.1 (1:1.1+202109281949+c3084ef5ed)"
   xmlns:inkscape="http://www.inkscape.org/namespaces/inkscape"
   xmlns:sodipodi="http://sodipodi.sourceforge.net/DTD/sodipodi-0.dtd"
   xmlns="http://www.w3.org/2000/svg"
   xmlns:svg="http://www.w3.org/2000/svg">
  <defs
     id="defs8" />
  <sodipodi:namedview
     id="namedview6"
     pagecolor="#ffffff"
     bordercolor="#666666"
     borderopacity="1.0"
     inkscape:pageshadow="2"
     inkscape:pageopacity="0.0"
     inkscape:pagecheckerboard="0"
     showgrid="false"
     fit-margin-top="0"
     fit-margin-left="0"
     fit-margin-right="0"
     fit-margin-bottom="0"
     inkscape:zoom="0.60076455"
     inkscape:cx="590.91369"
     inkscape:cy="533.48687"
     inkscape:window-width="1920"
     inkscape:window-height="1016"
     inkscape:window-x="1920"
     inkscape:window-y="679"
     inkscape:window-maximized="1"
     inkscape:current-layer="svg4" />
  <rect
     style="fill:#008900;fill-opacity:1;stroke-width:0.858512;stroke-linecap:round;stroke-linejoin:round;stop-color:#000000"
     id="rect949"
     width="1134.7692"
     height="936.79578"
     x="0"
     y="0"
     ry="124.58852" />
  <path
     d="m 855.38458,548.39789 h -128 c -34,0 -64,32 -64,64 h 256 c 0,-34 -32,-64 -64,-64 z m -55,-416 c -167,0 -209,32 -233,56 -24,-24 -66,-56 -233,-56 -167,0 -246.999997,46 -246.999997,78 v 586 c 28.999997,-16 118.999997,-48 213.999997,-56 115,-9 234,9 234,32 0,16 8,31 31,32 0,0 0,0 1,0 0,0 0,0 1,0 23,-1 31,-16 31,-32 0,-23 119,-41 234,-32 94,7 185.00002,40 214.00002,56 v -586 c 0,-32 -80.00002,-78 -247.00002,-78 z m -265,572 c -30,-16 -103,-28 -192,-28 -89,0 -170,12 -192,27 0,0 0,-411 0,-443 0,-32 64,-59 192,-59 128,0 192,27 192,59 0,32 0,444 0,444 z m 448,-1 c -22,-15 -103,-27 -192,-27 -89,0 -162,12 -192,28 0,0 0,-412 0,-444 0,-32 64,-59 192,-59 128,0 192,27 192,59 0,32 0,443 0,443 z m -128,-283 h -128 c -34,0 -64,32 -64,64 h 256 c 0,-34 -32,-64 -64,-64 z m 0,-128 h -128 c -34,0 -64,32 -64,64 h 256 c 0,-34 -32,-64 -64,-64 z m -448,128 h -128 c -32,0 -64,30 -64,64 h 256 c 0,-32 -30,-64 -64,-64 z m 0,128 h -128 c -32,0 -64,30 -64,64 h 256 c 0,-32 -30,-64 -64,-64 z m 0,-256 h -128 c -32,0 -64,30 -64,64 h 256 c 0,-32 -30,-64 -64,-64 z"
     id="path2"
     style="fill:#fffff7;fill-opacity:1" />
</svg>
