<?xml version="1.0" encoding="UTF-8" standalone="no"?>
<svg
   width="72.525452mm"
   height="69.294273mm"
   viewBox="0 0 72.525452 69.294273"
   version="1.1"
   id="svg8"
   xmlns="http://www.w3.org/2000/svg"
   xmlns:svg="http://www.w3.org/2000/svg"
   xmlns:rdf="http://www.w3.org/1999/02/22-rdf-syntax-ns#"
   xmlns:cc="http://creativecommons.org/ns#"
   xmlns:dc="http://purl.org/dc/elements/1.1/">
  <defs
     id="defs2">
    <radialGradient
       id="XMLID_2_"
       gradientUnits="userSpaceOnUse"
       cy="36.195"
       cx="52.408001"
       r="105.16">
      <stop
         id="stop8"
         style="stop-color:#D1F593"
         offset="0" />
      <stop
         id="stop10"
         style="stop-color:#81CE09"
         offset="1" />
    </radialGradient>
  </defs>
  <metadata
     id="metadata5">
    <rdf:RDF>
      <cc:Work
         rdf:about="">
        <dc:format>image/svg+xml</dc:format>
        <dc:type
           rdf:resource="http://purl.org/dc/dcmitype/StillImage" />
      </cc:Work>
    </rdf:RDF>
  </metadata>
  <g
     id="layer1"
     transform="translate(-85.670708,-164.49754)">
    <g
       id="g2402"
       transform="translate(2.4017824,0.65493853)">
      <rect
         style="fill:none;stroke:#2800ff;stroke-width:5;stroke-linejoin:round;stroke-miterlimit:4;stroke-dasharray:none;stroke-opacity:1;stop-color:#000000"
         id="rect1304"
         width="43.45388"
         height="23.514891"
         x="97.483253"
         y="182.92186" />
      <path
         style="fill:none;stroke:#ff8e00;stroke-width:4.99999;stroke-linejoin:round;stroke-miterlimit:4;stroke-dasharray:none;stroke-opacity:1;stop-color:#000000"
         d="M 85.554305,194.67931 H 152.86608"
         id="path1659" />
      <path
         style="fill:none;stroke:#0021ff;stroke-width:4.99999;stroke-linejoin:round;stroke-miterlimit:4;stroke-dasharray:none;stroke-opacity:1;stop-color:#000000"
         d="M 119.21019,182.92186 V 169.78714"
         id="path2053" />
    </g>
    <g
       fill="none"
       fill-rule="evenodd"
       id="Page-1"
       stroke="none"
       stroke-width="1"
       style="fill:#ff0000;fill-opacity:1"
       transform="matrix(1.7253444,0,0,1.7253444,107.25815,190.25274)">
      <g
         fill="#157EFB"
         id="icon-21-eye-hidden"
         style="fill:#ff0000;fill-opacity:1">
        <path
           d="M 8.1086989,20.891301 C 4.6172082,18.830115 3,16 3,16 3,16 7,9 16,9 c 1.304511,0 2.503975,0.1470647 3.601439,0.3985612 L 18.751902,10.248098 C 17.897148,10.090055 16.980093,10 16,10 8,10 4.1999512,16 4.1999512,16 c 0,0 1.5147769,2.391722 4.6449759,4.155073 z m 4.2898621,1.710138 C 13.496025,22.852936 14.695489,23 16,23 c 9,-1e-6 13,-7 13,-7 0,0 -1.617208,-2.830114 -5.108699,-4.891301 l -0.736228,0.736228 C 26.285272,13.608278 27.800049,16 27.800049,16 27.800049,16 24,21.999999 16,22 15.019907,22 14.102852,21.90995 13.248098,21.751902 Z m 7.500092,-7.500092 C 19.964966,15.390212 20,15.691014 20,16 c 0,2.209139 -1.790861,4 -4,4 -0.308986,0 -0.609788,-0.03503 -0.898653,-0.101347 L 16,19 c 0.767767,0 1.535534,-0.292893 2.12132,-0.87868 C 18.707107,17.535534 19,16.767767 19,16 Z m -3,-3 C 16.609788,12.035034 16.308986,12 16,12 c -2.209139,0 -4,1.790861 -4,4 0,0.308986 0.03503,0.609788 0.101347,0.898653 L 13,16 c 0,-0.767767 0.292893,-1.535534 0.87868,-2.12132 C 14.464466,13.292893 15.232233,13 16,13 Z M 24,7 7,24 8,25 25,8 Z"
           id="eye-hidden"
           style="fill:#ff0000;fill-opacity:1" />
      </g>
    </g>
  </g>
</svg>
